<svg xmlns="http://www.w3.org/2000/svg" width="1120" height="720" viewBox="0 0 1120 720" role="img" aria-labelledby="title desc">
  <title id="title">mllm System Architecture</title>
  <desc id="desc">Layered architecture for the mllm inference engine on Apple Silicon.</desc>
  <defs>
    <pattern id="grid" width="40" height="40" patternUnits="userSpaceOnUse">
      <path d="M 40 0 L 0 0 0 40" fill="none" stroke="#1e293b" stroke-width="0.5"/>
    </pattern>
    <marker id="arrow" markerWidth="10" markerHeight="8" refX="9" refY="4" orient="auto">
      <path d="M0,0 L10,4 L0,8 Z" fill="#64748b"/>
    </marker>
    <style>
      text { font-family: "JetBrains Mono", "SFMono-Regular", Menlo, Consolas, monospace; }
      .bg { fill: #020617; }
      .title { fill: #f8fafc; font-size: 22px; font-weight: 700; }
      .subtitle { fill: #94a3b8; font-size: 11px; }
      .band-label { fill: #cbd5e1; font-size: 12px; font-weight: 700; }
      .node-title { fill: #f8fafc; font-size: 12px; font-weight: 700; }
      .node-sub { fill: #94a3b8; font-size: 9px; }
      .note { fill: #cbd5e1; font-size: 10px; }
      .line { fill: none; stroke: #64748b; stroke-width: 1.5; marker-end: url(#arrow); }
      .line-soft { fill: none; stroke: #475569; stroke-width: 1.2; marker-end: url(#arrow); }
      .boundary { fill: rgba(15, 23, 42, 0.5); stroke: #475569; stroke-width: 1.4; stroke-dasharray: 8 5; }
      .frontend { fill: rgba(8, 51, 68, 0.42); stroke: #22d3ee; stroke-width: 1.5; }
      .backend { fill: rgba(6, 78, 59, 0.42); stroke: #34d399; stroke-width: 1.5; }
      .data { fill: rgba(76, 29, 149, 0.42); stroke: #a78bfa; stroke-width: 1.5; }
      .kernel { fill: rgba(120, 53, 15, 0.36); stroke: #fbbf24; stroke-width: 1.5; }
      .generic { fill: rgba(30, 41, 59, 0.72); stroke: #94a3b8; stroke-width: 1.5; }
      .mask { fill: #0f172a; }
    </style>
  </defs>

  <rect class="bg" x="0" y="0" width="1120" height="720"/>
  <rect x="0" y="0" width="1120" height="720" fill="url(#grid)" opacity="0.65"/>

  <text class="title" x="40" y="42">mllm System Architecture</text>
  <text class="subtitle" x="40" y="64">C++20 inference engine with a pure core, explicit backend boundary, and staged Metal acceleration</text>

  <!-- Connections behind components -->
  <path class="line" d="M210 130 V188"/>
  <path class="line" d="M340 230 H420"/>
  <path class="line-soft" d="M560 230 H640"/>
  <path class="line-soft" d="M560 310 H640"/>
  <path class="line-soft" d="M560 390 H640"/>
  <path class="line-soft" d="M560 470 H640"/>
  <path class="line" d="M780 190 V138 H890 V188"/>
  <path class="line" d="M780 270 V310 H890 V268"/>
  <path class="line" d="M780 430 V470 H890 V428"/>
  <path class="line" d="M780 510 V560 H890 V508"/>
  <path class="line-soft" d="M210 550 H420"/>
  <path class="line-soft" d="M640 550 H525"/>

  <!-- Boundaries -->
  <rect class="boundary" x="30" y="90" width="1060" height="560" rx="14"/>
  <text class="band-label" x="50" y="636">Process Boundary: single model, single request stream</text>

  <rect class="boundary" x="400" y="160" width="190" height="390" rx="12"/>
  <text class="band-label" x="420" y="184">Engine Runtime</text>

  <rect class="boundary" x="620" y="90" width="300" height="520" rx="12"/>
  <text class="band-label" x="640" y="116">Backend Boundary</text>

  <!-- CLI -->
  <rect class="mask" x="110" y="110" width="200" height="70" rx="6"/>
  <rect class="frontend" x="110" y="110" width="200" height="70" rx="6"/>
  <text class="node-title" x="210" y="137" text-anchor="middle">CLI</text>
  <text class="node-sub" x="210" y="154" text-anchor="middle">prompt, stream output</text>

  <!-- Engine surface -->
  <rect class="mask" x="110" y="190" width="200" height="80" rx="6"/>
  <rect class="backend" x="110" y="190" width="200" height="80" rx="6"/>
  <text class="node-title" x="210" y="220" text-anchor="middle">Engine API</text>
  <text class="node-sub" x="210" y="238" text-anchor="middle">GenerateTokens / GenerateStream</text>
  <text class="node-sub" x="210" y="254" text-anchor="middle">perf stats, cancellation</text>

  <!-- Runtime modules -->
  <rect class="mask" x="420" y="200" width="140" height="60" rx="6"/>
  <rect class="backend" x="420" y="200" width="140" height="60" rx="6"/>
  <text class="node-title" x="490" y="225" text-anchor="middle">Model</text>
  <text class="node-sub" x="490" y="243" text-anchor="middle">layers, forward loop</text>

  <rect class="mask" x="420" y="280" width="140" height="60" rx="6"/>
  <rect class="data" x="420" y="280" width="140" height="60" rx="6"/>
  <text class="node-title" x="490" y="305" text-anchor="middle">KV Cache</text>
  <text class="node-sub" x="490" y="323" text-anchor="middle">continuous window</text>

  <rect class="mask" x="420" y="360" width="140" height="60" rx="6"/>
  <rect class="backend" x="420" y="360" width="140" height="60" rx="6"/>
  <text class="node-title" x="490" y="385" text-anchor="middle">Sampler</text>
  <text class="node-sub" x="490" y="403" text-anchor="middle">greedy first, seeded</text>

  <rect class="mask" x="420" y="440" width="140" height="60" rx="6"/>
  <rect class="backend" x="420" y="440" width="140" height="60" rx="6"/>
  <text class="node-title" x="490" y="465" text-anchor="middle">Tokenizer</text>
  <text class="node-sub" x="490" y="483" text-anchor="middle">GGUF metadata</text>

  <!-- Backend modules -->
  <rect class="mask" x="640" y="160" width="140" height="60" rx="6"/>
  <rect class="kernel" x="640" y="160" width="140" height="60" rx="6"/>
  <text class="node-title" x="710" y="185" text-anchor="middle">Backend</text>
  <text class="node-sub" x="710" y="203" text-anchor="middle">pure C++ interface</text>

  <rect class="mask" x="640" y="240" width="140" height="60" rx="6"/>
  <rect class="kernel" x="640" y="240" width="140" height="60" rx="6"/>
  <text class="node-title" x="710" y="265" text-anchor="middle">Metal</text>
  <text class="node-sub" x="710" y="283" text-anchor="middle">.mm + .metal kernels</text>

  <rect class="mask" x="640" y="400" width="140" height="60" rx="6"/>
  <rect class="generic" x="640" y="400" width="140" height="60" rx="6"/>
  <text class="node-title" x="710" y="425" text-anchor="middle">CPU Debug</text>
  <text class="node-sub" x="710" y="443" text-anchor="middle">reference ops only</text>

  <rect class="mask" x="640" y="480" width="140" height="60" rx="6"/>
  <rect class="data" x="640" y="480" width="140" height="60" rx="6"/>
  <text class="node-title" x="710" y="505" text-anchor="middle">Weight Storage</text>
  <text class="node-sub" x="710" y="523" text-anchor="middle">mapped or imported</text>

  <!-- Platform modules -->
  <rect class="mask" x="850" y="190" width="150" height="80" rx="6"/>
  <rect class="kernel" x="850" y="190" width="150" height="80" rx="6"/>
  <text class="node-title" x="925" y="219" text-anchor="middle">Metal Runtime</text>
  <text class="node-sub" x="925" y="237" text-anchor="middle">device, queue, PSO</text>
  <text class="node-sub" x="925" y="253" text-anchor="middle">command buffers</text>

  <rect class="mask" x="850" y="350" width="150" height="80" rx="6"/>
  <rect class="kernel" x="850" y="350" width="150" height="80" rx="6"/>
  <text class="node-title" x="925" y="379" text-anchor="middle">Kernel Library</text>
  <text class="node-sub" x="925" y="397" text-anchor="middle">RMSNorm, RoPE</text>
  <text class="node-sub" x="925" y="413" text-anchor="middle">GEMV, attention</text>

  <rect class="mask" x="850" y="510" width="150" height="80" rx="6"/>
  <rect class="generic" x="850" y="510" width="150" height="80" rx="6"/>
  <text class="node-title" x="925" y="539" text-anchor="middle">Apple Silicon</text>
  <text class="node-sub" x="925" y="557" text-anchor="middle">unified memory</text>
  <text class="node-sub" x="925" y="573" text-anchor="middle">GPU compute</text>

  <!-- Loader/Core bottom row -->
  <rect class="mask" x="110" y="510" width="200" height="80" rx="6"/>
  <rect class="data" x="110" y="510" width="200" height="80" rx="6"/>
  <text class="node-title" x="210" y="539" text-anchor="middle">GGUF Loader</text>
  <text class="node-sub" x="210" y="557" text-anchor="middle">MappedFile + tensor table</text>
  <text class="node-sub" x="210" y="573" text-anchor="middle">owns mmap lifecycle</text>

  <rect class="mask" x="420" y="520" width="140" height="60" rx="6"/>
  <rect class="generic" x="420" y="520" width="140" height="60" rx="6"/>
  <text class="node-title" x="490" y="545" text-anchor="middle">Core</text>
  <text class="node-sub" x="490" y="563" text-anchor="middle">Status, Shape, TensorView</text>

  <!-- Legend -->
  <rect x="40" y="670" width="1040" height="28" rx="6" fill="#0f172a" stroke="#334155" stroke-width="1"/>
  <text class="note" x="60" y="689">Legend:</text>
  <rect class="frontend" x="130" y="678" width="18" height="10" rx="2"/>
  <text class="note" x="156" y="688">user interface</text>
  <rect class="backend" x="270" y="678" width="18" height="10" rx="2"/>
  <text class="note" x="296" y="688">runtime logic</text>
  <rect class="data" x="420" y="678" width="18" height="10" rx="2"/>
  <text class="note" x="446" y="688">data / storage</text>
  <rect class="kernel" x="575" y="678" width="18" height="10" rx="2"/>
  <text class="note" x="601" y="688">Metal backend</text>
  <rect class="generic" x="735" y="678" width="18" height="10" rx="2"/>
  <text class="note" x="761" y="688">core / platform</text>
</svg>
